<?xml version="1.0" encoding="UTF-8" standalone="no"?>
<!-- Created with Inkscape (http://www.inkscape.org/) -->

<svg
   width="53.66mm"
   height="66.68mm"
   viewBox="0 0 53.660001 66.680001"
   version="1.1"
   id="svg1"
   xml:space="preserve"
   inkscape:version="1.4.3 (0d15f75, 2025-12-25)"
   sodipodi:docname="zpd_logo.svg"
   xmlns:inkscape="http://www.inkscape.org/namespaces/inkscape"
   xmlns:sodipodi="http://sodipodi.sourceforge.net/DTD/sodipodi-0.dtd"
   xmlns:xlink="http://www.w3.org/1999/xlink"
   xmlns="http://www.w3.org/2000/svg"
   xmlns:svg="http://www.w3.org/2000/svg"><sodipodi:namedview
     id="namedview1"
     pagecolor="#ffffff"
     bordercolor="#000000"
     borderopacity="0.25"
     inkscape:showpageshadow="true"
     inkscape:pageopacity="0.0"
     inkscape:pagecheckerboard="true"
     inkscape:deskcolor="#d1d1d1"
     inkscape:document-units="mm"
     showborder="true"
     borderlayer="true"
     labelstyle="default"
     inkscape:antialias-rendering="true"
     inkscape:clip-to-page="false"
     inkscape:zoom="16"
     inkscape:cx="203.3125"
     inkscape:cy="181.46875"
     inkscape:window-width="1440"
     inkscape:window-height="829"
     inkscape:window-x="1352"
     inkscape:window-y="-8"
     inkscape:window-maximized="1"
     inkscape:current-layer="layer4" /><defs
     id="defs1"><linearGradient
       id="linearGradient24"
       inkscape:collect="always"><stop
         style="stop-color:#000000;stop-opacity:1;"
         offset="0"
         id="stop24" /><stop
         style="stop-color:#ffffff;stop-opacity:1;"
         offset="0.50157726"
         id="stop26" /><stop
         style="stop-color:#000000;stop-opacity:1;"
         offset="1"
         id="stop25" /></linearGradient><linearGradient
       id="linearGradient17"
       inkscape:collect="always"><stop
         style="stop-color:#344653;stop-opacity:1;"
         offset="0"
         id="stop17" /><stop
         style="stop-color:#d4cfc9;stop-opacity:1;"
         offset="0.5"
         id="stop19" /><stop
         style="stop-color:#344653;stop-opacity:1;"
         offset="1"
         id="stop18" /></linearGradient><linearGradient
       id="linearGradient7"
       inkscape:collect="always"><stop
         style="stop-color:#0505c9;stop-opacity:1;"
         offset="0"
         id="stop8" /><stop
         style="stop-color:#ffffff;stop-opacity:1;"
         offset="0.34700316"
         id="stop15" /><stop
         style="stop-color:#ffffff;stop-opacity:1;"
         offset="0.6182965"
         id="stop16" /><stop
         style="stop-color:#0505c9;stop-opacity:1;"
         offset="1"
         id="stop10" /></linearGradient><linearGradient
       id="linearGradient3"
       inkscape:collect="always"><stop
         style="stop-color:#4caafa;stop-opacity:1;"
         offset="0"
         id="stop3" /><stop
         style="stop-color:#b4dafb;stop-opacity:1;"
         offset="0.40063092"
         id="stop6" /><stop
         style="stop-color:#c6dff5;stop-opacity:1;"
         offset="0.5"
         id="stop5" /><stop
         style="stop-color:#aed7fb;stop-opacity:1;"
         offset="0.59936905"
         id="stop7" /><stop
         style="stop-color:#4caafa;stop-opacity:1;"
         offset="1"
         id="stop4" /></linearGradient><linearGradient
       id="linearGradient8"
       inkscape:collect="always"><stop
         style="stop-color:#175906;stop-opacity:1;"
         offset="0.07823961"
         id="stop9" /><stop
         style="stop-color:#15610a;stop-opacity:0.94509804;"
         offset="0.29828849"
         id="stop12" /><stop
         style="stop-color:#08bc3c;stop-opacity:0.88235294;"
         offset="0.65036678"
         id="stop13" /><stop
         style="stop-color:#00f95e;stop-opacity:0.84313726;"
         offset="0.9046455"
         id="stop11" /><stop
         style="stop-color:#00f95e;stop-opacity:1;"
         offset="1"
         id="stop14" /></linearGradient><linearGradient
       inkscape:collect="always"
       xlink:href="#linearGradient8"
       id="linearGradient14"
       x1="73.065811"
       y1="72.090942"
       x2="75.956284"
       y2="69.665543"
       gradientUnits="userSpaceOnUse"
       gradientTransform="translate(-47.268261,-37.499585)" /><linearGradient
       inkscape:collect="always"
       xlink:href="#linearGradient3"
       id="linearGradient4"
       x1="74.143951"
       y1="44.861492"
       x2="74.143951"
       y2="98.170639"
       gradientUnits="userSpaceOnUse"
       gradientTransform="translate(-47.268261,-37.499585)" /><linearGradient
       inkscape:collect="always"
       xlink:href="#linearGradient7"
       id="linearGradient10"
       x1="74.089462"
       y1="44.707344"
       x2="74.089462"
       y2="98.281273"
       gradientUnits="userSpaceOnUse"
       gradientTransform="matrix(0.99998784,0,0,1.0049109,-47.260125,-37.850689)" /><linearGradient
       inkscape:collect="always"
       xlink:href="#linearGradient17"
       id="linearGradient18"
       x1="71.816795"
       y1="59.314541"
       x2="71.816795"
       y2="103.40469"
       gradientUnits="userSpaceOnUse"
       gradientTransform="translate(-47.268261,-37.499585)" /><linearGradient
       inkscape:collect="always"
       xlink:href="#linearGradient24"
       id="linearGradient25"
       x1="71.928284"
       y1="59.618759"
       x2="71.928284"
       y2="103.87399"
       gradientUnits="userSpaceOnUse"
       gradientTransform="translate(-47.268261,-37.499585)" /><linearGradient
       inkscape:collect="always"
       xlink:href="#linearGradient17"
       id="linearGradient26"
       gradientUnits="userSpaceOnUse"
       x1="71.816795"
       y1="59.314541"
       x2="71.816795"
       y2="103.40469"
       gradientTransform="translate(47.268261,37.499585)" /><linearGradient
       inkscape:collect="always"
       xlink:href="#linearGradient24"
       id="linearGradient27"
       gradientUnits="userSpaceOnUse"
       x1="71.928284"
       y1="59.618759"
       x2="71.928284"
       y2="103.87399"
       gradientTransform="translate(47.268261,37.499585)" /></defs><g
     inkscape:groupmode="layer"
     id="layer9"
     inkscape:label="Logo"><g
       inkscape:groupmode="layer"
       id="layer4"
       inkscape:label="Z"
       style="display:inline"><path
         style="display:inline;opacity:1;fill:url(#linearGradient4);stroke-width:0.264583"
         d="m 2.3628537,29.811409 c 0,0 2.31743,-2.122006 3.73258,-3.074176 0.315903,-0.212553 0.454607,-0.267535 0.822342,-0.485542 0.58543,-0.347066 1.227061,-0.695741 1.763673,-0.991025 0.241781,-0.133046 0.479255,-0.265496 0.676937,-0.367606 0.2110245,-0.109001 0.5657375,-0.309948 0.6984893,-0.45676 0.01022,-0.0113 0.03635,-0.145199 0.03183,-0.354725 -0.01413,-0.655116 -0.09701,-2.126499 -0.01107,-3.531844 0.052,-0.850291 0.125569,-1.753094 0.229784,-2.335794 0.09225,-0.51579 0.151338,-0.743029 0.219243,-0.779408 0.05942,-0.03183 1.025906,0.473604 3.996733,0.801369 2.27758,0.25128 5.703031,0.495531 10.637712,0.675045 3.196606,0.116286 8.251965,0.236248 11.924551,0.06574 2.699521,-0.125329 4.587423,-0.322592 4.587423,-0.322592 0,0 -0.160468,0.517582 -0.623446,1.224306 -0.619567,0.945755 -1.716149,2.276469 -3.074132,3.602183 -1.69757,1.657231 -4.199797,3.112545 -5.903615,3.950865 -3.017201,1.484537 -7.882867,3.66228 -11.984212,5.080692 -2.823731,0.976561 -4.633149,2.103769 -4.633149,2.103769 0,0 -1.963451,1.119667 -3.990303,2.963389 -0.849029,0.772317 -1.8103438,1.542474 -2.7225293,2.435449 -0.279558,0.273671 -0.574558,0.514256 -0.880318,0.844896 -1.798095,1.944398 -3.400823,3.891247 -4.186871,5.314532 -0.261823,0.474079 -0.418063,0.896016 -0.652893,1.411347 -0.161158,0.353657 -0.254709,0.718259 -0.40019,1.09927 -0.498373,1.30523 -0.872076,3.347326 -0.953143,4.195747 -0.04956,0.518662 -0.186952,1.422667 -0.249698,2.329934 -0.07637,1.104332 -0.0087,2.240141 0.0205,2.600803 0.04263,0.526114 0.05447,1.335005 0.116562,1.592074 0.06736,0.278897 0.173698,0.838309 0.252478,0.976984 0.07297,0.128442 0.125485,0.231935 0.488326,0.427768 0.164497,0.08878 0.319059,0.08323 0.476342,0.0781 0.212322,-0.0069 0.696337,-0.220781 1.961692,-0.566819 1.904642,-0.520866 5.0599425,-1.262157 8.8741653,-1.790187 0.970094,-0.134297 1.956361,-0.285482 3.002096,-0.33412 0.754658,-0.0351 1.552503,-0.05754 2.370786,-0.09558 2.70833,-0.125934 5.565728,-0.18969 8.37739,-0.211401 3.671543,-0.02835 7.212971,0.228548 10.535304,0.494146 3.182045,0.254382 6.174045,0.508541 8.400775,0.892285 1.854406,0.319579 3.286147,0.633442 4.099789,0.901386 0.372866,0.12279 0.562432,0.231521 0.670446,0.28237 0.04569,0.02151 0.0638,0.0368 0.104602,0.03829 0.125403,0.0046 0.196777,0.03141 0.336943,-0.02417 0.07719,-0.03062 0.116826,-0.100651 0.205182,-0.173757 0.322846,-0.267121 0.542878,-0.750741 0.542878,-0.750741 0,0 0.560331,-1.802458 0.817341,-4.104015 0.0276,-0.246952 0.0815,-0.495403 0.10328,-0.754309 0.18199,-2.166888 0.43336,-4.911906 0.33118,-6.633526 -0.0378,-0.636876 -0.23628,-1.397314 -0.40855,-2.200343 -0.16809,-0.783557 -0.23095,-1.50781 -0.465218,-2.251221 -0.187141,-0.593855 -0.357667,-1.188084 -0.536867,-1.69989 -0.451494,-1.289493 -0.98192,-2.034219 -0.98192,-2.034219 0,0 -0.101184,-0.207572 -0.341849,-0.192787 -0.05661,0.0035 -0.113154,0.03655 -0.173345,0.07778 -0.0854,0.05851 -0.11353,0.08721 -0.172837,0.127209 -0.993223,0.669854 -1.911996,1.2845 -3.059785,1.885338 -0.706218,0.369687 -1.769839,0.892919 -2.620734,1.323042 -0.668866,0.338109 -1.228624,0.636556 -1.228624,0.636556 0,0 -0.02104,0.514431 0.06272,1.163522 0.09304,0.720981 0.123688,1.636267 0.142533,2.233087 0.03496,1.10716 0.0097,3.317193 0.0097,3.317193 0,0 -0.539399,-0.276647 -1.305398,-0.401267 -0.764138,-0.124318 -1.32468,-0.223847 -2.396819,-0.341206 -3.136744,-0.343357 -7.625758,-0.7077 -10.370051,-0.738912 -2.827844,-0.03216 -7.178937,0.135981 -10.706058,0.444446 -2.575857,0.225272 -5.68183,0.904648 -5.68183,0.904648 0,0 0.104367,-0.566725 0.419494,-1.275861 0.306748,-0.690284 0.815653,-1.510599 1.445017,-2.429231 1.140625,-1.664877 2.922699,-3.254247 4.137124,-4.256248 1.389939,-1.146815 4.099373,-2.387823 6.428498,-3.504969 2.957261,-1.418428 5.677291,-2.465647 5.677291,-2.465647 0,0 1.661922,-0.38412 3.774825,-1.16885 1.371045,-0.509205 2.90882,-1.01383 4.493624,-1.964375 1.794931,-1.076576 3.827868,-2.321299 5.53312,-3.644223 1.565229,-1.214295 2.886633,-2.471184 3.745749,-3.581615 0.277597,-0.358802 0.637602,-0.805069 0.919503,-1.347271 0.313176,-0.602352 0.285317,-0.476806 0.545263,-1.116645 0.296093,-0.728812 0.567046,-1.388249 0.752731,-2.028662 0.146243,-0.504381 0.324142,-1.837477 0.6215,-3.387397 0.192326,-1.002458 0.353685,-2.115575 0.441861,-2.776699 0.07096,-0.532068 0.194347,-1.366181 0.322752,-2.670664 0.132247,-1.343522 0.164403,-3.2823144 0.162828,-4.4508744 -8e-4,-0.593698 -0.0072,-0.976312 -0.01997,-1.006176 -0.01692,-0.03969 -0.05292,-0.06359 -0.08662,-0.07834 -0.03245,-0.0142 -0.09838,-0.01055 -0.09838,-0.01055 0,0 -0.104423,-0.0064 -0.319222,0.07673 -0.206503,0.07991 -0.524181,0.182513 -0.939748,0.335435 -0.338842,0.124688 -0.75911,0.273933 -1.240091,0.45236 -0.824646,0.305915 -1.884723,0.466636 -3.09165,0.659234 -1.15581,0.18444 -2.446294,0.403599 -3.793655,0.564511 -5.978401,0.7139831 -13.753192,0.652155 -18.728045,0.657974 -1.40919,0.0016 -3.21503,-0.0939 -5.157395,-0.240713 -1.630122,-0.123216 -3.356984,-0.276877 -5.025082,-0.450837 -1.31637,-0.13728 -1.590685,-0.207879 -3.19944,-0.390271 -1.5633503,-0.177244 -1.4899603,-0.09881 -2.1933273,-0.208107 -1.271521,-0.197589 -2.441018,-0.306166 -3.353061,-0.517542 -1.292355,-0.299518 -2.114414,-0.590216 -2.495867,-0.817144 -0.124395,-0.074 -0.226001,-0.06343 -0.226001,-0.06343 0,0 -0.181397,0.102257 -0.36465,0.297158 -0.165903,0.176447 -0.32489,0.426716 -0.506697,0.784413 -0.260572,0.512665 -0.360774,1.067941 -0.625406,2.0153124 -0.63974695,2.290265 -1.01176191,5.474703 -1.00742591,7.438132 0.0056,2.527363 0.255129,4.781319 0.41996796,6.104036 0.05006,0.401725 0.0473,0.471162 0.185423,1.283016 0.117845,0.692651 0.25904495,1.353488 0.39236495,1.945265 0.09999,0.443833 0.239947,0.8325 0.359879,1.183177 0.221345,0.647205 0.45688,1.126412 0.605692,1.373758 0.07969,0.13245 0.178374,0.184207 0.178374,0.184207 z"
         id="path2"
         sodipodi:nodetypes="csssssssssssscsssscssssssssssssssssssssssssscsssssscssssscsscsssscsssscssssssssssssscsssssssssssscssssssssscc"
         inkscape:label="Preenchimento" /><path
         style="display:inline;fill:none;fill-opacity:1;stroke:url(#linearGradient10);stroke-width:0.3;stroke-linecap:round;stroke-dasharray:none;stroke-opacity:1"
         d="m 2.3158327,29.769044 c 0,0 2.317402,-2.132427 3.732535,-3.089273 0.315899,-0.213597 0.454601,-0.268849 0.822332,-0.487926 0.585423,-0.348771 1.227046,-0.699158 1.763651,-0.995892 0.241778,-0.1337 0.479249,-0.2668 0.676929,-0.369411 0.2110225,-0.109537 0.5657305,-0.311471 0.6984813,-0.459004 0.01022,-0.01136 0.03635,-0.145912 0.03183,-0.356467 -0.01413,-0.658333 -0.09701,-2.136942 -0.01107,-3.549188 0.052,-0.854467 0.125568,-1.761704 0.229782,-2.347265 0.09225,-0.518323 0.151336,-0.746678 0.21924,-0.783236 0.05942,-0.03199 1.025893,0.47593 3.996684,0.805305 2.277553,0.252514 5.702962,0.497964 10.637583,0.67836 3.196567,0.116857 8.251864,0.237408 11.924406,0.06606 2.699488,-0.125945 4.587367,-0.324177 4.587367,-0.324177 0,0 -0.160466,0.520124 -0.623438,1.230319 -0.61956,0.950399 -1.716129,2.287648 -3.074095,3.619873 -1.697549,1.66537 -4.199746,3.127831 -5.903543,3.970267 -3.017165,1.491828 -7.882771,3.680266 -11.984066,5.105643 -2.823697,0.981357 -4.633093,2.114101 -4.633093,2.114101 0,0 -1.963427,1.125166 -3.990255,2.977942 -0.849018,0.77611 -1.8103218,1.550049 -2.7224953,2.447409 -0.279555,0.275015 -0.574551,0.516782 -0.880308,0.849046 -1.798073,1.953946 -3.400781,3.910356 -4.18682,5.340631 -0.26182,0.476407 -0.418058,0.900416 -0.652885,1.418278 -0.161156,0.355394 -0.254706,0.721786 -0.400185,1.104668 -0.498367,1.31164 -0.872065,3.363765 -0.953131,4.216353 -0.04956,0.521209 -0.18695,1.429653 -0.249695,2.341376 -0.07637,1.109755 -0.0087,2.251142 0.0205,2.613575 0.04263,0.528698 0.05447,1.341558 0.116561,1.599891 0.06736,0.280269 0.173696,0.842427 0.252475,0.981788 0.07297,0.12907 0.125483,0.233069 0.48832,0.42986 0.164495,0.08924 0.319055,0.08361 0.476336,0.07848 0.21232,-0.007 0.696329,-0.221864 1.961668,-0.569594 1.904619,-0.523428 5.0598815,-1.268358 8.8740573,-1.798983 0.970083,-0.134957 1.956338,-0.286884 3.00206,-0.335761 0.754649,-0.03527 1.552484,-0.05782 2.370757,-0.09605 2.708297,-0.126553 5.56566,-0.190622 8.377288,-0.21244 3.671498,-0.02849 7.212883,0.229671 10.535176,0.496573 3.182006,0.255636 6.17397,0.511034 8.400673,0.896669 1.854383,0.321149 3.286107,0.636551 4.099739,0.905807 0.372861,0.123393 0.562425,0.232667 0.670438,0.283756 0.04569,0.02161 0.0638,0.03698 0.104601,0.03849 0.125401,0.005 0.196774,0.03155 0.336938,-0.02432 0.07719,-0.03075 0.116825,-0.101145 0.20518,-0.174604 0.322842,-0.268431 0.542871,-0.754427 0.542871,-0.754427 0,0 0.560317,-1.811313 0.817327,-4.124173 0.0276,-0.248165 0.0815,-0.497836 0.10328,-0.758013 0.18199,-2.17753 0.43335,-4.936029 0.33118,-6.666103 -0.0378,-0.640004 -0.23628,-1.404176 -0.40855,-2.211149 -0.16809,-0.787405 -0.23095,-1.515215 -0.465213,-2.262277 -0.187134,-0.596771 -0.357658,-1.193918 -0.536856,-1.708238 -0.451488,-1.295825 -0.981908,-2.044209 -0.981908,-2.044209 0,0 -0.101183,-0.208591 -0.341845,-0.193734 -0.05661,0.0035 -0.113152,0.03673 -0.173343,0.07816 -0.0854,0.0588 -0.113528,0.08764 -0.172834,0.127834 -0.993211,0.673144 -1.911973,1.290808 -3.059748,1.894597 -0.70621,0.371502 -1.769818,0.897304 -2.620702,1.329539 -0.668858,0.33977 -1.228609,0.639682 -1.228609,0.639682 0,0 -0.02104,0.516958 0.06272,1.169236 0.09304,0.724522 0.123686,1.644303 0.142531,2.244054 0.03496,1.112597 0.0097,3.333484 0.0097,3.333484 0,0 -0.539392,-0.278006 -1.305382,-0.403238 -0.764129,-0.124929 -1.324664,-0.224946 -2.39679,-0.342882 -3.136706,-0.345043 -7.625665,-0.711175 -10.369925,-0.74254 -2.827809,-0.03232 -7.17885,0.136648 -10.705928,0.446628 -2.575825,0.226378 -5.681761,0.909091 -5.681761,0.909091 0,0 0.104366,-0.569508 0.419489,-1.282127 0.306745,-0.693674 0.815643,-1.518017 1.445,-2.441161 1.140611,-1.673053 2.922663,-3.270228 4.137073,-4.27715 1.389923,-1.152447 4.099324,-2.399549 6.42842,-3.522182 2.957225,-1.425393 5.677222,-2.477755 5.677222,-2.477755 0,0 1.661902,-0.386007 3.774779,-1.17459 1.371029,-0.511706 2.908785,-1.018809 4.49357,-1.974022 1.794909,-1.081863 3.827821,-2.332699 5.533052,-3.66212 1.56521,-1.220258 2.886598,-2.48332 3.745704,-3.599204 0.277593,-0.360564 0.637594,-0.809023 0.919492,-1.353887 0.313172,-0.60531 0.285313,-0.479148 0.545256,-1.122129 0.296089,-0.732391 0.567039,-1.395067 0.752722,-2.038625 0.146241,-0.506858 0.324138,-1.846501 0.621492,-3.404032 0.192324,-1.007381 0.353681,-2.125965 0.441856,-2.790335 0.07096,-0.534681 0.194345,-1.372891 0.322748,-2.68378 0.13224,-1.35012 0.1644,-3.2984334 0.16282,-4.4727324 -8e-4,-0.596613 -0.007,-0.981106 -0.02,-1.011117 -0.0169,-0.03988 -0.05289,-0.0639 -0.08661,-0.07872 -0.03245,-0.01427 -0.09838,-0.0106 -0.09838,-0.0106 0,0 -0.104421,-0.0064 -0.319218,0.07711 -0.2065,0.0803 -0.524174,0.18341 -0.939736,0.337083 -0.338838,0.1253 -0.759101,0.275278 -1.240076,0.454581 -0.824636,0.307417 -1.8847,0.468928 -3.091613,0.662472 -1.155795,0.185345 -2.446264,0.405581 -3.793608,0.567283 -5.978329,0.717489 -13.753025,0.655358 -18.727818,0.661205 -1.409172,0.0016 -3.21499,-0.09436 -5.157332,-0.241895 -1.630102,-0.123821 -3.356943,-0.278237 -5.025021,-0.453051 -1.316354,-0.137954 -1.590665,-0.2089 -3.199401,-0.392188 -1.5633313,-0.178114 -1.4899423,-0.09929 -2.1933003,-0.209129 -1.271506,-0.198559 -2.440988,-0.307669 -3.35302,-0.520083 -1.29234,-0.300989 -2.114389,-0.593115 -2.495837,-0.821157 -0.124393,-0.07436 -0.225998,-0.06374 -0.225998,-0.06374 0,0 -0.181395,0.102759 -0.364646,0.298618 -0.165901,0.177313 -0.324886,0.428811 -0.506691,0.788265 -0.260568,0.515182 -0.360769,1.073185 -0.625398,2.0252094 -0.63973895,2.301512 -1.01174991,5.501589 -1.00741391,7.47466 0.0056,2.539775 0.255126,4.8048 0.41996296,6.134013 0.05006,0.403698 0.0473,0.473476 0.185421,1.289317 0.117843,0.696052 0.25904195,1.360134 0.39235995,1.954818 0.09999,0.446012 0.239944,0.836588 0.359875,1.188987 0.221342,0.650384 0.456874,1.131944 0.605684,1.380505 0.07969,0.1331 0.178372,0.185111 0.178372,0.185111 z"
         id="path2-1"
         sodipodi:nodetypes="csssssssssssscsssscssssssssssssssssssssssssscsssssscssssscsscsssscsssscssssssssssssscsssssssssssscssssssssscc"
         inkscape:label="Contorno" /></g><g
       inkscape:groupmode="layer"
       id="layer8"
       inkscape:label="pd"><g
         inkscape:groupmode="layer"
         id="layer6"
         inkscape:label="P"
         style="display:inline"><path
           id="path16"
           style="display:inline;fill:url(#linearGradient18);fill-rule:evenodd;stroke-width:0.324814;stroke-linecap:round"
           inkscape:label="preenchimento"
           d="m 27.310133,21.620321 c -2.422142,5.4e-5 -4.776733,0.85442 -6.699333,2.430859 v -1.856217 c 0,-0.233206 -0.163088,-0.421163 -0.365869,-0.421163 h -5.955192 v -0.0016 l -3.74034,0.0041 c 0,0 -0.02486,-0.0016 -0.05426,0.0078 -0.03331,0.01066 -0.07867,0.03236 -0.118339,0.04909 -0.06734,0.0284 -0.135685,0.0899 -0.152445,0.131259 -0.0098,0.02395 -0.03174,0.05027 -0.03204,0.08785 -2.4e-4,0.02826 0.02469,0.05573 0.03359,0.0832 0.02347,0.07226 0.110588,0.156579 0.110588,0.156579 l 3.444751,3.64784 -0.05581,24.160799 c 0.254127,-0.05156 0.664738,-0.133387 1.126546,-0.219108 0.147977,-0.02747 0.300227,-0.05306 0.45527,-0.08113 0.6011,-0.108838 1.228893,-0.216553 1.682584,-0.279053 0.313083,-0.04313 0.706253,-0.09578 1.117761,-0.144694 0.181256,-0.02154 0.369843,-0.03625 0.553455,-0.05323 0.851863,-0.07876 1.654468,-0.137939 1.936833,-0.15813 l 0.01292,-6.402193 c 1.922659,1.576253 4.277251,2.430435 6.699333,2.430343 6.083243,-8e-6 11.014715,-5.276903 11.014831,-11.786361 1.5e-4,-6.509659 -4.931399,-11.786869 -11.014831,-11.786877 z m -0.05064,5.005379 c 3.53773,-2e-5 6.405675,3.08309 6.40581,6.886401 1.3e-4,3.803513 -2.867892,6.886938 -6.40581,6.886918 -2.527728,-1.39e-4 -4.819025,-1.598318 -5.849256,-4.079854 -0.0067,-0.03351 -0.01928,-0.104372 -0.0124,-0.143144 0.0074,-0.04181 0.02208,-0.07448 0.06149,-0.0987 0.05693,-0.03499 0.198437,-0.02377 0.198437,-0.02377 l 2.834969,5.17e-4 c 0,0 0.04995,6.26e-4 0.08268,-0.02842 0.03196,-0.0284 0.03721,-0.07183 0.03721,-0.07183 0,0 -0.07606,-0.334527 -0.135392,-0.764812 -0.05933,-0.430325 -0.107188,-0.957629 -0.110588,-1.32395 -0.004,-0.430639 0.006,-1.159053 0.02584,-1.692403 0.01501,-0.40318 0.04082,-0.687813 0.04082,-0.687813 0,0 0.0084,-0.05104 -0.01292,-0.08578 -0.02363,-0.0384 -0.05994,-0.04186 -0.05994,-0.04186 l -2.916618,-0.01964 c 0,0 -0.02666,0.0019 -0.03824,-0.01033 -0.01086,-0.01148 -0.02532,-0.02274 -0.02532,-0.02274 0,0 -0.01746,-0.03208 -0.03256,-0.07648 -0.01615,-0.04736 -0.0147,-0.123099 -0.0124,-0.169499 0.0011,-0.02227 0.0056,-0.04937 0.01189,-0.07906 0.0071,-0.03331 0.01634,-0.06986 0.02584,-0.106453 0.0321,-0.124217 0.07183,-0.249081 0.07183,-0.249081 l -0.001,0.001 c 1.047384,-2.438142 3.3176,-3.999294 5.815666,-3.999239 z m -6.679696,31.644063 c -0.551125,0.02146 -2.790449,0.109384 -3.993038,0.164331 -0.134146,0.0061 -0.286548,0.01627 -0.448035,0.02687 -0.213472,0.01401 -0.44244,0.03451 -0.675411,0.06046 -0.163671,0.01823 -0.256082,0.02743 -0.487825,0.05736 -0.514153,0.06639 -0.993266,0.132676 -1.270207,0.171566 l -0.01757,7.566985 c -5.41e-4,0.23321 0.291763,0.23358 0.494544,0.23358 h 6.097819 c 0.202781,0 0.283756,-0.0474 0.28422,-0.28061 l 0.01602,-8.000546 c -3.31e-4,1.3e-5 -1.85e-4,-1.3e-5 -5.17e-4,0 z" /><path
           id="path16-8"
           style="display:inline;opacity:1;fill:none;fill-rule:evenodd;stroke:url(#linearGradient25);stroke-width:0.32613;stroke-linecap:round;stroke-opacity:1"
           inkscape:label="contorno"
           d="m 27.329253,21.588798 a 11.159252,11.728571 0 0 0 -6.787183,2.418974 v -1.846916 c 0,-0.23206 -0.165595,-0.419096 -0.371037,-0.419096 H 14.13781 v -0.0016 l -3.789433,0.0041 c 0,0 -0.025,-0.0015 -0.05478,0.0078 -0.03375,0.01061 -0.07445,0.0334 -0.111621,0.05581 -0.0588,0.03546 -0.108077,0.09683 -0.125057,0.137976 -0.01,0.02383 -0.01825,0.0582 -0.0186,0.0956 -2.44e-4,0.02811 0.006,0.05845 0.01499,0.08578 0.02378,0.0719 0.07958,0.130225 0.07958,0.130225 l 3.48971,3.629753 v 24.233663 c 0.235399,-0.04819 0.69895,-0.141129 1.230416,-0.239779 0.147977,-0.02747 0.300226,-0.05358 0.455269,-0.08165 0.6011,-0.108838 1.229411,-0.216553 1.683102,-0.279053 0.313083,-0.04313 0.706253,-0.09578 1.117761,-0.144694 0.181256,-0.02154 0.369326,-0.03625 0.552938,-0.05323 0.799669,-0.07394 1.556691,-0.130627 1.879988,-0.153996 v -6.540686 a 11.159252,11.728571 0 0 0 6.787183,2.418457 11.159252,11.728571 0 0 0 11.159009,-11.728483 11.159252,11.728571 0 0 0 -11.159009,-11.729 z m -0.05168,4.981091 a 6.4897574,6.8527681 0 0 1 6.490044,6.852295 6.4897574,6.8527681 0 0 1 -6.490044,6.853329 6.4897574,6.8527681 0 0 1 -5.925736,-4.060218 c -0.0068,-0.03335 -0.01988,-0.10353 -0.01292,-0.14211 0.0075,-0.04161 0.02257,-0.07409 0.06253,-0.09819 0.05769,-0.03482 0.201022,-0.02377 0.201022,-0.02377 l 2.872176,5.17e-4 c 0,0 0.05056,4.93e-4 0.08372,-0.02842 0.03239,-0.02825 0.03772,-0.07131 0.03772,-0.07131 0,0 -0.07681,-0.333026 -0.136942,-0.761194 -0.06012,-0.428206 -0.108695,-0.952715 -0.112138,-1.317232 -0.0041,-0.428518 0.0063,-1.153411 0.02635,-1.684135 0.01521,-0.401196 0.04134,-0.684713 0.04134,-0.684713 0,0 0.0083,-0.0507 -0.01344,-0.08527 -0.02393,-0.03822 -0.06046,-0.04134 -0.06046,-0.04134 l -2.954859,-0.01964 c 0,0 -0.02703,0.0018 -0.03876,-0.01033 -0.01101,-0.01142 -0.02584,-0.02274 -0.02584,-0.02274 0,0 -0.01774,-0.03178 -0.03307,-0.07596 -0.01634,-0.04712 -0.01473,-0.122293 -0.0124,-0.168465 0.0011,-0.02216 0.0056,-0.04951 0.01188,-0.07906 0.0072,-0.03315 0.01672,-0.06952 0.02635,-0.105937 0.03252,-0.123607 0.07286,-0.24753 0.07286,-0.24753 l -0.001,10e-4 a 6.4897574,6.8527681 0 0 1 5.89163,-3.979602 z M 20.542067,58.27028 c -0.611377,0.02383 -2.77811,0.109064 -3.953764,0.162781 -0.134146,0.0061 -0.286547,0.01627 -0.448034,0.02687 -0.213472,0.01401 -0.44244,0.03451 -0.675411,0.06046 -0.163671,0.01823 -0.256083,0.02743 -0.487826,0.05736 -0.570784,0.07371 -1.098762,0.147343 -1.354439,0.183451 v 7.327723 c 0,0.23207 0.165599,0.41858 0.371037,0.41858 h 6.1774 c 0.205442,0 0.371037,-0.18651 0.371037,-0.41858 z" /></g><g
         inkscape:groupmode="layer"
         id="layer6-2"
         inkscape:label="d"
         style="display:inline"
         transform="rotate(180,74.56859,70.847614)"><path
           id="path16-4"
           style="display:inline;fill:url(#linearGradient26);fill-rule:evenodd;stroke-width:0.324814;stroke-linecap:round"
           inkscape:label="Preenchimento"
           d="m 114.81662,141.55009 c 0.20278,0 0.28324,-0.0474 0.2837,-0.28061 l 0.0181,-9.05423 c -0.22738,0.007 -0.74229,0.0233 -1.33118,0.045 -0.34675,0.0127 -0.72309,0.023 -1.07797,0.0382 -0.37069,0.0159 -0.71851,0.0366 -1.00253,0.0517 -0.63794,0.0339 -1.60997,0.0859 -2.39726,0.14056 -0.29875,0.0207 -0.57687,0.0425 -0.7891,0.0605 -0.1069,0.009 -0.19946,0.0171 -0.27595,0.0238 l -0.0202,8.74159 c -5.4e-4,0.23321 0.29176,0.23358 0.49454,0.23358 z m -6.54999,-18.59164 c 0.68734,-0.0515 2.51646,-0.1858 3.56929,-0.23616 0.64641,-0.0309 1.66937,-0.0686 2.42569,-0.0847 0.39452,-0.008 0.7166,-0.0141 0.87592,-0.0165 l 0.01,-4.85862 c 1.92266,1.57626 4.27725,2.43044 6.69933,2.43035 6.08324,-1e-5 11.01472,-5.27691 11.01483,-11.78637 1.5e-4,-6.50966 -4.9314,-11.786865 -11.01483,-11.786873 -2.42214,5.4e-5 -4.77673,0.85442 -6.69933,2.430859 v -1.856307 c 0,-0.233206 -0.16309,-0.421163 -0.36587,-0.421163 h -5.95519 v -0.0016 l -3.74034,0.0041 c 0,0 -0.0249,-0.0016 -0.0543,0.0078 -0.0333,0.01066 -0.0787,0.03236 -0.11834,0.04909 -0.0673,0.0284 -0.13568,0.0899 -0.15244,0.131258 -0.01,0.02395 -0.0317,0.05027 -0.032,0.08785 -2.4e-4,0.02826 0.0247,0.05573 0.0336,0.0832 0.0235,0.07226 0.11058,0.156579 0.11058,0.156579 l 3.44476,3.647837 z m 13.52941,-7.56026 c -2.52773,-1.4e-4 -4.81903,-1.59832 -5.84926,-4.07985 -0.007,-0.0335 -0.0193,-0.10438 -0.0124,-0.14315 0.007,-0.0418 0.0221,-0.0745 0.0615,-0.0987 0.0569,-0.035 0.19844,-0.0238 0.19844,-0.0238 l 2.83497,5.2e-4 c 0,0 0.0499,6.2e-4 0.0827,-0.0284 0.032,-0.0284 0.0372,-0.0718 0.0372,-0.0718 0,0 -0.0761,-0.33453 -0.13539,-0.76481 -0.0593,-0.43033 -0.10719,-0.95763 -0.11059,-1.32395 -0.004,-0.43064 0.006,-1.15906 0.0258,-1.69241 0.015,-0.40318 0.0408,-0.68781 0.0408,-0.68781 0,0 0.008,-0.051 -0.0129,-0.0858 -0.0236,-0.0384 -0.0599,-0.0419 -0.0599,-0.0419 l -2.91662,-0.0196 c 0,0 -0.0267,0.002 -0.0382,-0.0103 -0.0109,-0.0115 -0.0253,-0.0227 -0.0253,-0.0227 0,0 -0.0175,-0.0321 -0.0326,-0.0765 -0.0161,-0.0474 -0.0147,-0.1231 -0.0124,-0.1695 0.001,-0.0223 0.006,-0.0494 0.0119,-0.0791 0.007,-0.0333 0.0163,-0.0699 0.0258,-0.10645 0.0321,-0.12422 0.0718,-0.24908 0.0718,-0.24908 l -0.001,0.001 c 1.04738,-2.43815 3.3176,-3.9993 5.81567,-3.99924 3.53773,-2e-5 6.40567,3.08309 6.40581,6.8864 1.3e-4,3.80351 -2.8679,6.88694 -6.40581,6.88692 z" /><path
           id="path16-8-8"
           style="display:inline;opacity:1;fill:none;fill-rule:evenodd;stroke:url(#linearGradient27);stroke-width:0.32613;stroke-linecap:round;stroke-opacity:1"
           inkscape:label="contorno"
           d="m 114.70758,141.50668 c 0.20544,0 0.37104,-0.18651 0.37104,-0.41858 v -8.8713 c -0.24422,0.008 -0.73498,0.023 -1.2914,0.0434 -0.34674,0.0127 -0.72308,0.023 -1.07797,0.0382 -0.37069,0.0159 -0.71851,0.0366 -1.00252,0.0517 -0.63795,0.0339 -1.60998,0.0859 -2.39727,0.14056 -0.29874,0.0207 -0.57687,0.0425 -0.78909,0.0605 -0.15041,0.0127 -0.27262,0.0237 -0.36122,0.0315 v 8.50543 c 0,0.23207 0.1656,0.41858 0.37103,0.41858 z m -6.54843,-18.53996 c 0.5805,-0.0438 2.56301,-0.19116 3.67677,-0.24443 0.64641,-0.0309 1.66937,-0.0686 2.42569,-0.0847 0.3505,-0.008 0.64415,-0.0127 0.81701,-0.0155 v -4.99504 a 11.159252,11.728571 0 0 0 6.78666,2.41845 11.159252,11.728571 0 0 0 11.15953,-11.72848 11.159252,11.728571 0 0 0 -11.15953,-11.729 11.159252,11.728571 0 0 0 -6.78718,2.418974 v -1.846916 c 0,-0.23206 -0.16508,-0.419096 -0.37052,-0.419096 h -6.03322 v -0.0016 l -3.78943,0.0041 c 0,0 -0.025,-0.0015 -0.0548,0.0078 -0.0337,0.01061 -0.0744,0.0334 -0.11162,0.05581 -0.0588,0.03546 -0.10808,0.09683 -0.12506,0.137976 -0.01,0.02383 -0.0188,0.0582 -0.0191,0.0956 -2.4e-4,0.02811 0.007,0.05845 0.0155,0.08578 0.0238,0.0719 0.0796,0.130225 0.0796,0.130225 l 3.48971,3.629757 z m 13.65497,-7.69204 a 6.4897574,6.8527681 0 0 1 -5.92573,-4.06021 c -0.007,-0.0333 -0.0199,-0.10353 -0.0129,-0.14211 0.007,-0.0416 0.0226,-0.0741 0.0625,-0.0982 0.0577,-0.0348 0.20102,-0.0238 0.20102,-0.0238 l 2.87217,5.1e-4 c 0,0 0.0506,5e-4 0.0837,-0.0284 0.0324,-0.0282 0.0377,-0.0713 0.0377,-0.0713 0,0 -0.0768,-0.33302 -0.13694,-0.76119 -0.0601,-0.42821 -0.10869,-0.95272 -0.11214,-1.31723 -0.004,-0.42852 0.006,-1.15341 0.0258,-1.68414 0.0152,-0.40119 0.0413,-0.68471 0.0413,-0.68471 0,0 0.009,-0.0507 -0.0129,-0.0853 -0.0239,-0.0382 -0.0605,-0.0413 -0.0605,-0.0413 l -2.95486,-0.0196 c 0,0 -0.027,0.002 -0.0388,-0.0103 -0.011,-0.0114 -0.0258,-0.0227 -0.0258,-0.0227 0,0 -0.0177,-0.0318 -0.0331,-0.076 -0.0163,-0.0471 -0.0147,-0.12229 -0.0124,-0.16847 10e-4,-0.0222 0.006,-0.0495 0.0119,-0.0791 0.007,-0.0332 0.0167,-0.0695 0.0264,-0.10593 0.0325,-0.12361 0.0729,-0.24753 0.0729,-0.24753 l -0.001,0.001 a 6.4897574,6.8527681 0 0 1 5.89163,-3.97961 6.4897574,6.8527681 0 0 1 6.49005,6.8523 6.4897574,6.8527681 0 0 1 -6.49005,6.85333 z" /></g></g><g
       inkscape:groupmode="layer"
       id="layer3"
       inkscape:label="Esfera"
       style="display:inline"><path
         id="path1"
         style="display:inline;fill:url(#linearGradient14);stroke-width:0.1"
         inkscape:label="Verde"
         d="m 29.129423,33.378657 a 1.8866363,2.0135593 0 0 1 -1.886637,2.01356 1.8866363,2.0135593 0 0 1 -1.886636,-2.01356 1.8866363,2.0135593 0 0 1 1.886636,-2.013559 1.8866363,2.0135593 0 0 1 1.886637,2.013559 z" /><path
         id="path1-5"
         style="display:inline;fill:none;stroke:#000000;stroke-width:0.08"
         inkscape:label="Contorno"
         d="m 29.083862,33.378467 a 1.8430597,1.9749531 0 0 1 -1.843059,1.974953 1.8430597,1.9749531 0 0 1 -1.84306,-1.974953 1.8430597,1.9749531 0 0 1 1.84306,-1.974953 1.8430597,1.9749531 0 0 1 1.843059,1.974953 z" /><path
         style="display:inline;fill:#000000;fill-opacity:1;stroke:none;stroke-width:0.0799999;stroke-dasharray:none;stroke-opacity:1"
         d="m 26.279619,31.731588 0.821653,1.43764 -0.08992,0.146759 -1.583365,-0.0052 c 0,0 -0.02066,0.09095 -0.01963,0.09509 0.0011,0.0041 -0.0093,0.06098 -0.0083,0.06718 0.0011,0.0062 0.03617,0.313161 0.03927,0.326596 0.0031,0.01344 0.147796,0.469223 0.147796,0.469223 l 0.109554,0.184999 c 0,0 0.118856,0.201538 0.122989,0.205674 0.0041,0.0041 0.13436,0.142626 0.13436,0.142626 l 0.02582,0.0186 0.01035,-0.03721 0.0021,-0.01035 -0.0011,-0.05478 0.0041,-1.272273 1.069702,-0.0186 0.157097,-0.257349 0.0021,-0.0031 -0.848526,-1.493449 c 0,0 0.254246,-0.144692 0.258381,-0.145727 0.0041,-0.0011 0.423746,-0.12609 0.423746,-0.12609 l 0.507463,0.02687 0.387572,0.143661 0.185002,0.104386 -0.853694,1.480013 c 0,0 -0.0072,0.0093 -0.0011,0.02376 0.0062,0.01447 0.156064,0.249081 0.156064,0.249081 l 0.0072,0.0072 c 0,0 1.047998,-0.0155 1.052131,0.0041 0.0041,0.01963 0.02379,1.315683 0.02379,1.315683 l -0.147796,0.146759 -0.01757,0.01138 -0.946714,-1.396296 h -0.307991 l -0.964282,1.411801 c 0,0 0.07235,0.09405 0.07751,0.09405 0.0052,0 0.01035,-0.03307 0.01035,-0.03307 l 0.923976,-1.342551 h 0.21704 l 0.91054,1.342551 c 0,0 0.04857,0 0.05581,-0.0011 0.0072,-0.0011 0.115756,-0.08992 0.119891,-0.09199 0.0041,-0.0021 0.134358,-0.134358 0.134358,-0.134358 0,0 0.07545,-0.09302 0.07958,-0.09715 0.0041,-0.0041 0.164333,-0.225309 0.164333,-0.225309 l 0.12609,-0.262517 0.05374,-0.156062 0.07132,-0.261482 0.03307,-0.317294 -0.01034,-0.118856 -1.5937,-0.0031 -0.104388,-0.150895 0.0021,-0.01447 0.821656,-1.436605 -0.120925,-0.101285 c 0,0 -0.240811,-0.11679 -0.256315,-0.119888 -0.01551,-0.0031 -0.200504,-0.07132 -0.200504,-0.07132 l -0.256315,-0.04341 -0.300757,0.0011 -0.192236,0.02997 -0.470255,0.171566 -0.153995,0.125055 z"
         id="path3"
         inkscape:label="Marcas Internas" /></g></g></svg>
